{
	"asset":{
		"version":"2.0",
		"generator":"Created using the official Cinema 4D glTF Exporter 1.000x284978"
	},
	"samplers":[{
		"magFilter":9729,
		"minFilter":9729,
		"wrapS":10497,
		"wrapT":10497
	},
	{
		"magFilter":9729,
		"minFilter":9729,
		"wrapS":10497,
		"wrapT":10497
	},
	{
		"magFilter":9729,
		"minFilter":9729,
		"wrapS":10497,
		"wrapT":10497
	},
	{
		"magFilter":9729,
		"minFilter":9729,
		"wrapS":10497,
		"wrapT":10497
	},
	{
		"magFilter":9729,
		"minFilter":9729,
		"wrapS":10497,
		"wrapT":10497
	},
	{
		"magFilter":9729,
		"minFilter":9729,
		"wrapS":10497,
		"wrapT":10497
	},
	{
		"magFilter":9729,
		"minFilter":9729,
		"wrapS":10497,
		"wrapT":10497
	},
	{
		"magFilter":9729,
		"minFilter":9729,
		"wrapS":10497,
		"wrapT":10497
	},
	{
		"magFilter":9729,
		"minFilter":9729,
		"wrapS":10497,
		"wrapT":10497
	},
	{
		"magFilter":9729,
		"minFilter":9729,
		"wrapS":10497,
		"wrapT":10497
	},
	{
		"magFilter":9729,
		"minFilter":9729,
		"wrapS":10497,
		"wrapT":10497
	},
	{
		"magFilter":9729,
		"minFilter":9729,
		"wrapS":10497,
		"wrapT":10497
	},
	{
		"magFilter":9729,
		"minFilter":9729,
		"wrapS":10497,
		"wrapT":10497
	},
	{
		"magFilter":9729,
		"minFilter":9729,
		"wrapS":10497,
		"wrapT":10497
	}],
	"scenes":[{
		"nodes":[0]
	}],
	"nodes":[{
		"name":"口罩样式一",
		"translation":[0.0,
		-3.2914071083068849,
		-1.2683610916137696],
		"rotation":[-0.2164396196603775,
		0.0,
		0.0,
		-0.9762960076332092],
		"scale":[1.0,
		1.0,
		1.0],
		"mesh":0,
		"children":[1,
		2,
		3,
		4,
		5,
		6,
		7,
		8,
		9,
		10]
	},
	{
		"name":"平面.9",
		"translation":[1.9043891429901124,
		-0.020919978618621827,
		1.982500433921814],
		"rotation":[-0.07034935802221298,
		0.6176901459693909,
		-0.7185631394386292,
		-0.3117320239543915],
		"scale":[1.0,
		1.0,
		1.0],
		"mesh":1
	},
	{
		"name":"平面.8",
		"translation":[1.335888385772705,
		0.20526118576526643,
		2.264667272567749],
		"rotation":[0.2603262960910797,
		0.44150084257125857,
		-0.7206650972366333,
		-0.4668501913547516],
		"scale":[1.0,
		1.0,
		1.0],
		"mesh":2
	},
	{
		"name":"平面.7",
		"translation":[3.0493557453155519,
		1.7788457870483399,
		-0.5707518458366394],
		"rotation":[0.18906737864017487,
		0.4435323476791382,
		-0.7368316054344177,
		-0.4739322364330292],
		"scale":[1.0,
		1.0,
		1.0],
		"mesh":3
	},
	{
		"name":"平面.5",
		"translation":[2.9105069637298586,
		1.4046859741210938,
		0.71769118309021],
		"rotation":[0.2337488830089569,
		-0.5217955708503723,
		0.7936114072799683,
		0.20801882445812226],
		"scale":[1.0,
		1.0,
		1.0],
		"mesh":4
	},
	{
		"name":"平面.6",
		"translation":[-1.3221100568771363,
		2.456178665161133,
		0.31399431824684145],
		"rotation":[0.016674283891916276,
		-0.5569235682487488,
		0.8029308915138245,
		-0.21180211007595063],
		"scale":[1.0,
		1.0,
		1.0],
		"mesh":5
	},
	{
		"name":"平面.4",
		"translation":[-1.7045788764953614,
		-1.0835514068603516,
		1.8816964626312256],
		"rotation":[0.39736950397491457,
		-0.4502655863761902,
		0.6306332945823669,
		-0.49158933758735659],
		"scale":[1.0,
		1.0,
		1.0],
		"mesh":6
	},
	{
		"name":"平面.2",
		"translation":[1.2033374309539796,
		2.704326868057251,
		0.24727404117584229],
		"rotation":[0.044399160891771319,
		0.5771386623382568,
		-0.8009765148162842,
		-0.15289311110973359],
		"scale":[1.0,
		1.0,
		1.0],
		"mesh":7
	},
	{
		"name":"平面.3",
		"translation":[-2.0736732482910158,
		-0.6065038442611694,
		1.543392539024353],
		"rotation":[0.5614265203475952,
		-0.19604794681072236,
		0.4459518790245056,
		-0.6689487099647522],
		"scale":[1.0,
		1.0,
		1.0],
		"mesh":8
	},
	{
		"name":"平面.1",
		"translation":[-3.2856879234313967,
		2.23534893989563,
		-0.26161330938339236],
		"rotation":[0.7890340685844421,
		0.4010588824748993,
		-0.3288652300834656,
		-0.32927897572517397],
		"scale":[1.0,
		1.0,
		1.0],
		"mesh":9
	},
	{
		"name":"平面",
		"translation":[-3.0257623195648195,
		1.746490240097046,
		0.2618759572505951],
		"rotation":[0.828883945941925,
		0.2300097495317459,
		0.13434681296348573,
		-0.49193274974823],
		"scale":[1.0,
		1.0,
		1.0],
		"mesh":10
	}],
	"textures":[{
		"sampler":0,
		"source":0
	},
	{
		"sampler":1,
		"source":1
	},
	{
		"sampler":2,
		"source":2
	},
	{
		"sampler":3,
		"source":3
	},
	{
		"sampler":4,
		"source":4
	},
	{
		"sampler":5,
		"source":5
	},
	{
		"sampler":6,
		"source":6
	},
	{
		"sampler":7,
		"source":7
	},
	{
		"sampler":8,
		"source":8
	},
	{
		"sampler":9,
		"source":3
	},
	{
		"sampler":10,
		"source":4
	},
	{
		"sampler":11,
		"source":9
	},
	{
		"sampler":12,
		"source":10
	},
	{
		"sampler":13,
		"source":11
	}],
	"meshes":[{
		"name":"口罩样式一",
		"primitives":[{
			"attributes":{
				"POSITION":1,
				"NORMAL":2,
				"TEXCOORD_0":3
			},
			"indices":0,
			"material":0
		}]
	},
	{
		"name":"平面.9",
		"primitives":[{
			"attributes":{
				"POSITION":5,
				"NORMAL":6,
				"TEXCOORD_0":7
			},
			"indices":4,
			"material":1
		}]
	},
	{
		"name":"平面.8",
		"primitives":[{
			"attributes":{
				"POSITION":9,
				"NORMAL":10,
				"TEXCOORD_0":11
			},
			"indices":8,
			"material":1
		}]
	},
	{
		"name":"平面.7",
		"primitives":[{
			"attributes":{
				"POSITION":13,
				"NORMAL":14,
				"TEXCOORD_0":15
			},
			"indices":12,
			"material":2
		}]
	},
	{
		"name":"平面.5",
		"primitives":[{
			"attributes":{
				"POSITION":17,
				"NORMAL":18,
				"TEXCOORD_0":19
			},
			"indices":16,
			"material":3
		}]
	},
	{
		"name":"平面.6",
		"primitives":[{
			"attributes":{
				"POSITION":21,
				"NORMAL":22,
				"TEXCOORD_0":23
			},
			"indices":20,
			"material":3
		}]
	},
	{
		"name":"平面.4",
		"primitives":[{
			"attributes":{
				"POSITION":25,
				"NORMAL":26,
				"TEXCOORD_0":27
			},
			"indices":24,
			"material":1
		}]
	},
	{
		"name":"平面.2",
		"primitives":[{
			"attributes":{
				"POSITION":29,
				"NORMAL":30,
				"TEXCOORD_0":31
			},
			"indices":28,
			"material":4
		}]
	},
	{
		"name":"平面.3",
		"primitives":[{
			"attributes":{
				"POSITION":33,
				"NORMAL":34,
				"TEXCOORD_0":35
			},
			"indices":32,
			"material":1
		}]
	},
	{
		"name":"平面.1",
		"primitives":[{
			"attributes":{
				"POSITION":37,
				"NORMAL":38,
				"TEXCOORD_0":39
			},
			"indices":36,
			"material":3
		}]
	},
	{
		"name":"平面",
		"primitives":[{
			"attributes":{
				"POSITION":41,
				"NORMAL":42,
				"TEXCOORD_0":43
			},
			"indices":40,
			"material":1
		}]
	}],
	"accessors":[{
		"bufferView":0,
		"type":"SCALAR",
		"componentType":5123,
		"count":21888,
		"byteOffset":0,
		"min":[0],
		"max":[3821]
	},
	{
		"bufferView":1,
		"type":"VEC3",
		"componentType":5126,
		"count":3822,
		"byteOffset":0,
		"min":[-4.185500144958496,
		-3.023927688598633,
		-0.7750692367553711],
		"max":[4.185500144958496,
		3.0260722637176515,
		2.3129308223724367]
	},
	{
		"bufferView":1,
		"type":"VEC3",
		"componentType":5126,
		"count":3822,
		"byteOffset":12,
		"min":[-0.9580479264259338,
		-0.9865798950195313,
		-0.42590442299842837],
		"max":[0.9580479264259338,
		0.8777592778205872,
		0.9825575947761536]
	},
	{
		"bufferView":1,
		"type":"VEC2",
		"componentType":5126,
		"count":3822,
		"byteOffset":24,
		"min":[0.0,
		0.14799997210502625],
		"max":[1.0,
		0.8519998788833618]
	},
	{
		"bufferView":2,
		"type":"SCALAR",
		"componentType":5123,
		"count":6,
		"byteOffset":0,
		"min":[0],
		"max":[3]
	},
	{
		"bufferView":3,
		"type":"VEC3",
		"componentType":5126,
		"count":4,
		"byteOffset":0,
		"min":[-0.5546456575393677,
		-0.00006906613270984963,
		-0.5546729564666748],
		"max":[0.5546456575393677,
		0.00006906613270984963,
		0.5546729564666748]
	},
	{
		"bufferView":3,
		"type":"VEC3",
		"componentType":5126,
		"count":4,
		"byteOffset":12,
		"min":[0.00008440857345703989,
		-1.0,
		0.0000401193683501333],
		"max":[0.00008440857345703989,
		-1.0,
		0.0000401193683501333]
	},
	{
		"bufferView":3,
		"type":"VEC2",
		"componentType":5126,
		"count":4,
		"byteOffset":24,
		"min":[0.0,
		0.0],
		"max":[1.0,
		1.0]
	},
	{
		"bufferView":4,
		"type":"SCALAR",
		"componentType":5123,
		"count":6,
		"byteOffset":0,
		"min":[0],
		"max":[3]
	},
	{
		"bufferView":5,
		"type":"VEC3",
		"componentType":5126,
		"count":4,
		"byteOffset":0,
		"min":[-0.3050673007965088,
		-0.00002790512917272281,
		-0.30505016446113589],
		"max":[0.3050673007965088,
		0.00002790512917272281,
		0.30505016446113589]
	},
	{
		"bufferView":5,
		"type":"VEC3",
		"componentType":5126,
		"count":4,
		"byteOffset":12,
		"min":[0.000004338449343777029,
		-1.0,
		0.00008714013529242948],
		"max":[0.000004338449343777029,
		-1.0,
		0.00008714013529242948]
	},
	{
		"bufferView":5,
		"type":"VEC2",
		"componentType":5126,
		"count":4,
		"byteOffset":24,
		"min":[0.0,
		0.0],
		"max":[1.0,
		1.0]
	},
	{
		"bufferView":6,
		"type":"SCALAR",
		"componentType":5123,
		"count":6,
		"byteOffset":0,
		"min":[0],
		"max":[3]
	},
	{
		"bufferView":7,
		"type":"VEC3",
		"componentType":5126,
		"count":4,
		"byteOffset":0,
		"min":[-1.2688580751419068,
		-0.00014636230480391532,
		-1.2687783241271973],
		"max":[1.2688580751419068,
		0.00014636230480391532,
		1.2687783241271973]
	},
	{
		"bufferView":7,
		"type":"VEC3",
		"componentType":5126,
		"count":4,
		"byteOffset":12,
		"min":[0.000022302014258457349,
		-1.0,
		0.00009305850107921287],
		"max":[0.000022302014258457349,
		-1.0,
		0.00009305850107921287]
	},
	{
		"bufferView":7,
		"type":"VEC2",
		"componentType":5126,
		"count":4,
		"byteOffset":24,
		"min":[0.0,
		0.0],
		"max":[1.0,
		1.0]
	},
	{
		"bufferView":8,
		"type":"SCALAR",
		"componentType":5123,
		"count":6,
		"byteOffset":0,
		"min":[0],
		"max":[3]
	},
	{
		"bufferView":9,
		"type":"VEC3",
		"componentType":5126,
		"count":4,
		"byteOffset":0,
		"min":[-1.4137897491455079,
		-0.00020579043484758586,
		-1.4138737916946412],
		"max":[1.4137897491455079,
		0.00020579043484758586,
		1.4138737916946412]
	},
	{
		"bufferView":9,
		"type":"VEC3",
		"componentType":5126,
		"count":4,
		"byteOffset":12,
		"min":[0.00008820565562928095,
		-1.0,
		0.00005736294770031236],
		"max":[0.00008820565562928095,
		-1.0,
		0.00005736294770031236]
	},
	{
		"bufferView":9,
		"type":"VEC2",
		"componentType":5126,
		"count":4,
		"byteOffset":24,
		"min":[0.0,
		0.0],
		"max":[1.0,
		1.0]
	},
	{
		"bufferView":10,
		"type":"SCALAR",
		"componentType":5123,
		"count":6,
		"byteOffset":0,
		"min":[0],
		"max":[3]
	},
	{
		"bufferView":11,
		"type":"VEC3",
		"componentType":5126,
		"count":4,
		"byteOffset":0,
		"min":[-0.5655397176742554,
		-0.00006317032966762781,
		-0.5655336976051331],
		"max":[0.5655397176742554,
		0.00006317032966762781,
		0.5655336976051331]
	},
	{
		"bufferView":11,
		"type":"VEC3",
		"componentType":5126,
		"count":4,
		"byteOffset":12,
		"min":[-0.00003731928518391214,
		-1.0,
		0.00007438543252646923],
		"max":[-0.00003731928518391214,
		-1.0,
		0.00007438543252646923]
	},
	{
		"bufferView":11,
		"type":"VEC2",
		"componentType":5126,
		"count":4,
		"byteOffset":24,
		"min":[0.0,
		0.0],
		"max":[1.0,
		1.0]
	},
	{
		"bufferView":12,
		"type":"SCALAR",
		"componentType":5123,
		"count":6,
		"byteOffset":0,
		"min":[0],
		"max":[3]
	},
	{
		"bufferView":13,
		"type":"VEC3",
		"componentType":5126,
		"count":4,
		"byteOffset":0,
		"min":[-0.3050653040409088,
		-0.00002093423972837627,
		-0.3050563633441925],
		"max":[0.3050653040409088,
		0.00002093423972837627,
		0.3050563633441925]
	},
	{
		"bufferView":13,
		"type":"VEC3",
		"componentType":5126,
		"count":4,
		"byteOffset":12,
		"min":[0.000013210466931923293,
		-1.0,
		0.00005541342034121044],
		"max":[0.000013210466931923293,
		-1.0,
		0.00005541342034121044]
	},
	{
		"bufferView":13,
		"type":"VEC2",
		"componentType":5126,
		"count":4,
		"byteOffset":24,
		"min":[0.0,
		0.0],
		"max":[1.0,
		1.0]
	},
	{
		"bufferView":14,
		"type":"SCALAR",
		"componentType":5123,
		"count":6,
		"byteOffset":0,
		"min":[0],
		"max":[3]
	},
	{
		"bufferView":15,
		"type":"VEC3",
		"componentType":5126,
		"count":4,
		"byteOffset":0,
		"min":[-0.5437861084938049,
		-0.00004725169492303394,
		-0.5437812805175781],
		"max":[0.5437861084938049,
		0.00004725169492303394,
		0.5437812805175781]
	},
	{
		"bufferView":15,
		"type":"VEC3",
		"componentType":5126,
		"count":4,
		"byteOffset":12,
		"min":[0.000019104852981399746,
		-1.0,
		0.00006779161049053073],
		"max":[0.000019104852981399746,
		-1.0,
		0.00006779161049053073]
	},
	{
		"bufferView":15,
		"type":"VEC2",
		"componentType":5126,
		"count":4,
		"byteOffset":24,
		"min":[0.0,
		0.0],
		"max":[1.0,
		1.0]
	},
	{
		"bufferView":16,
		"type":"SCALAR",
		"componentType":5123,
		"count":6,
		"byteOffset":0,
		"min":[0],
		"max":[3]
	},
	{
		"bufferView":17,
		"type":"VEC3",
		"componentType":5126,
		"count":4,
		"byteOffset":0,
		"min":[-0.5546671748161316,
		-0.000056334927649004388,
		-0.5546610355377197],
		"max":[0.5546671748161316,
		0.000056334927649004388,
		0.5546610355377197]
	},
	{
		"bufferView":17,
		"type":"VEC3",
		"componentType":5126,
		"count":4,
		"byteOffset":12,
		"min":[0.00004589645322994329,
		-1.0,
		0.000055673812312306839],
		"max":[0.00004589645322994329,
		-1.0,
		0.000055673812312306839]
	},
	{
		"bufferView":17,
		"type":"VEC2",
		"componentType":5126,
		"count":4,
		"byteOffset":24,
		"min":[0.0,
		0.0],
		"max":[1.0,
		1.0]
	},
	{
		"bufferView":18,
		"type":"SCALAR",
		"componentType":5123,
		"count":6,
		"byteOffset":0,
		"min":[0],
		"max":[3]
	},
	{
		"bufferView":19,
		"type":"VEC3",
		"componentType":5126,
		"count":4,
		"byteOffset":0,
		"min":[-0.92444908618927,
		-0.00012988169328309596,
		-0.9243910312652588],
		"max":[0.92444908618927,
		0.00012988169328309596,
		0.9243910312652588]
	},
	{
		"bufferView":19,
		"type":"VEC3",
		"componentType":5126,
		"count":4,
		"byteOffset":12,
		"min":[-0.000047111596359172839,
		-1.0,
		-0.00009339804091723636],
		"max":[-0.000047111596359172839,
		-1.0,
		-0.00009339804091723636]
	},
	{
		"bufferView":19,
		"type":"VEC2",
		"componentType":5126,
		"count":4,
		"byteOffset":24,
		"min":[0.0,
		0.0],
		"max":[1.0,
		1.0]
	},
	{
		"bufferView":20,
		"type":"SCALAR",
		"componentType":5123,
		"count":6,
		"byteOffset":0,
		"min":[0],
		"max":[3]
	},
	{
		"bufferView":21,
		"type":"VEC3",
		"componentType":5126,
		"count":4,
		"byteOffset":0,
		"min":[-1.4500917196273804,
		-0.00021507946075871587,
		-1.4500986337661744],
		"max":[1.4500917196273804,
		0.00021507946075871587,
		1.4500986337661744]
	},
	{
		"bufferView":21,
		"type":"VEC3",
		"componentType":5126,
		"count":4,
		"byteOffset":12,
		"min":[0.0000682753961882554,
		-1.0,
		-0.00008005966810742393],
		"max":[0.0000682753961882554,
		-1.0,
		-0.00008005966810742393]
	},
	{
		"bufferView":21,
		"type":"VEC2",
		"componentType":5126,
		"count":4,
		"byteOffset":24,
		"min":[0.0,
		0.0],
		"max":[1.0,
		1.0]
	}],
	"bufferViews":[{
		"buffer":0,
		"target":34963,
		"byteOffset":0,
		"byteLength":43776
	},
	{
		"buffer":0,
		"target":34962,
		"byteOffset":43776,
		"byteLength":122304,
		"byteStride":32
	},
	{
		"buffer":1,
		"target":34963,
		"byteOffset":0,
		"byteLength":12
	},
	{
		"buffer":1,
		"target":34962,
		"byteOffset":12,
		"byteLength":128,
		"byteStride":32
	},
	{
		"buffer":2,
		"target":34963,
		"byteOffset":0,
		"byteLength":12
	},
	{
		"buffer":2,
		"target":34962,
		"byteOffset":12,
		"byteLength":128,
		"byteStride":32
	},
	{
		"buffer":3,
		"target":34963,
		"byteOffset":0,
		"byteLength":12
	},
	{
		"buffer":3,
		"target":34962,
		"byteOffset":12,
		"byteLength":128,
		"byteStride":32
	},
	{
		"buffer":4,
		"target":34963,
		"byteOffset":0,
		"byteLength":12
	},
	{
		"buffer":4,
		"target":34962,
		"byteOffset":12,
		"byteLength":128,
		"byteStride":32
	},
	{
		"buffer":5,
		"target":34963,
		"byteOffset":0,
		"byteLength":12
	},
	{
		"buffer":5,
		"target":34962,
		"byteOffset":12,
		"byteLength":128,
		"byteStride":32
	},
	{
		"buffer":6,
		"target":34963,
		"byteOffset":0,
		"byteLength":12
	},
	{
		"buffer":6,
		"target":34962,
		"byteOffset":12,
		"byteLength":128,
		"byteStride":32
	},
	{
		"buffer":7,
		"target":34963,
		"byteOffset":0,
		"byteLength":12
	},
	{
		"buffer":7,
		"target":34962,
		"byteOffset":12,
		"byteLength":128,
		"byteStride":32
	},
	{
		"buffer":8,
		"target":34963,
		"byteOffset":0,
		"byteLength":12
	},
	{
		"buffer":8,
		"target":34962,
		"byteOffset":12,
		"byteLength":128,
		"byteStride":32
	},
	{
		"buffer":9,
		"target":34963,
		"byteOffset":0,
		"byteLength":12
	},
	{
		"buffer":9,
		"target":34962,
		"byteOffset":12,
		"byteLength":128,
		"byteStride":32
	},
	{
		"buffer":10,
		"target":34963,
		"byteOffset":0,
		"byteLength":12
	},
	{
		"buffer":10,
		"target":34962,
		"byteOffset":12,
		"byteLength":128,
		"byteStride":32
	}],
	"buffers":[{
		"uri":"data:application/octet-stream;base64,",
		"byteLength":166080
	},
	{
		"uri":"data:application/octet-stream;base64,",
		"byteLength":140
	},
	{
		"uri":"data:application/octet-stream;base64,",
		"byteLength":140
	},
	{
		"uri":"data:application/octet-stream;base64,",
		"byteLength":140
	},
	{
		"uri":"data:application/octet-stream;base64,",
		"byteLength":140
	},
	{
		"uri":"data:application/octet-stream;base64,",
		"byteLength":140
	},
	{
		"uri":"data:application/octet-stream;base64,",
		"byteLength":140
	},
	{
		"uri":"data:application/octet-stream;base64,",
		"byteLength":140
	},
	{
		"uri":"data:application/octet-stream;base64,",
		"byteLength":140
	},
	{
		"uri":"data:application/octet-stream;base64,",
		"byteLength":140
	},
	{
		"uri":"data:application/octet-stream;base64,",
		"byteLength":140
	}],
	"images":[{
		"uri":"data:image/jpeg;base64,"
	},
	{
		"uri":"data:image/jpeg;base64,"
	},
	{
		"uri":"data:image/png;base64,"
	},
	{
		"uri":"data:image/jpeg;base64,"
	},
	{
		"uri":"data:image/jpeg;base64,"
	},
	{
		"uri":"data:image/png;base64,"
	},
	{
		"uri":"data:image/jpeg;base64,"
	},
	{
		"uri":"data:image/jpeg;base64,"
	},
	{
		"uri":"data:image/png;base64,"
	},
	{
		"uri":"data:image/png;base64,"
	},
	{
		"uri":"data:image/jpeg;base64,"
	},
	{
		"uri":"data:image/jpeg;base64,"
	}],
	"materials":[{
		"emissiveFactor":[0.0,
		0.0,
		0.0],
		"pbrMetallicRoughness":{
			"baseColorTexture":{
				"index":0
			},
			"baseColorFactor":[1.0,
			1.0,
			1.0,
			1.0],
			"metallicFactor":0.05,
			"roughnessFactor":1.0
		},
		"normalTexture":{
			"index":1,
			"scale":1.0
		},
		"alphaMode":"OPAQUE",
		"doubleSided":true,
		"name":"mask"
	},
	{
		"emissiveFactor":[0.2,
		0.2,
		0.2],
		"pbrMetallicRoughness":{
			"baseColorTexture":{
				"index":2
			},
			"baseColorFactor":[0.8,
			0.8,
			0.8,
			1.0],
			"metallicFactor":0.05,
			"roughnessFactor":1.0
		},
		"normalTexture":{
			"index":3,
			"scale":1.0
		},
		"emissiveTexture":{
			"index":4
		},
		"alphaMode":"BLEND",
		"doubleSided":true,
		"name":"flower01-yellow"
	},
	{
		"emissiveFactor":[0.2,
		0.2,
		0.2],
		"pbrMetallicRoughness":{
			"baseColorTexture":{
				"index":5
			},
			"baseColorFactor":[0.8,
			0.8,
			0.8,
			1.0],
			"metallicFactor":0.05,
			"roughnessFactor":1.0
		},
		"normalTexture":{
			"index":6,
			"scale":1.0
		},
		"emissiveTexture":{
			"index":7
		},
		"alphaMode":"BLEND",
		"doubleSided":true,
		"name":"flower03"
	},
	{
		"emissiveFactor":[0.2,
		0.2,
		0.2],
		"pbrMetallicRoughness":{
			"baseColorTexture":{
				"index":8
			},
			"baseColorFactor":[0.8,
			0.8,
			0.8,
			1.0],
			"metallicFactor":0.05,
			"roughnessFactor":1.0
		},
		"normalTexture":{
			"index":9,
			"scale":1.0
		},
		"emissiveTexture":{
			"index":10
		},
		"alphaMode":"BLEND",
		"doubleSided":true,
		"name":"flower01-leaves-yellow"
	},
	{
		"emissiveFactor":[0.2,
		0.2,
		0.2],
		"pbrMetallicRoughness":{
			"baseColorTexture":{
				"index":11
			},
			"baseColorFactor":[0.8,
			0.8,
			0.8,
			1.0],
			"metallicFactor":0.05,
			"roughnessFactor":1.0
		},
		"normalTexture":{
			"index":12,
			"scale":1.0
		},
		"emissiveTexture":{
			"index":13
		},
		"alphaMode":"BLEND",
		"doubleSided":true,
		"name":"flower02"
	}]
}