{
	"asset":{
		"version":"2.0",
		"generator":"Created using the official Cinema 4D glTF Exporter 1.000x284978"
	},
	"samplers":[{
		"magFilter":9729,
		"minFilter":9729,
		"wrapS":10497,
		"wrapT":10497
	},
	{
		"magFilter":9729,
		"minFilter":9729,
		"wrapS":10497,
		"wrapT":10497
	},
	{
		"magFilter":9729,
		"minFilter":9729,
		"wrapS":10497,
		"wrapT":10497
	},
	{
		"magFilter":9729,
		"minFilter":9729,
		"wrapS":10497,
		"wrapT":10497
	},
	{
		"magFilter":9729,
		"minFilter":9729,
		"wrapS":10497,
		"wrapT":10497
	},
	{
		"magFilter":9729,
		"minFilter":9729,
		"wrapS":10497,
		"wrapT":10497
	},
	{
		"magFilter":9729,
		"minFilter":9729,
		"wrapS":10497,
		"wrapT":10497
	},
	{
		"magFilter":9729,
		"minFilter":9729,
		"wrapS":10497,
		"wrapT":10497
	},
	{
		"magFilter":9729,
		"minFilter":9729,
		"wrapS":10497,
		"wrapT":10497
	},
	{
		"magFilter":9729,
		"minFilter":9729,
		"wrapS":10497,
		"wrapT":10497
	},
	{
		"magFilter":9729,
		"minFilter":9729,
		"wrapS":10497,
		"wrapT":10497
	},
	{
		"magFilter":9729,
		"minFilter":9729,
		"wrapS":10497,
		"wrapT":10497
	},
	{
		"magFilter":9729,
		"minFilter":9729,
		"wrapS":10497,
		"wrapT":10497
	},
	{
		"magFilter":9729,
		"minFilter":9729,
		"wrapS":10497,
		"wrapT":10497
	}],
	"scenes":[{
		"nodes":[0]
	}],
	"nodes":[{
		"name":"口罩样式二",
		"translation":[0.0,
		-3.2899999618530275,
		-1.2699999809265137],
		"rotation":[-0.2164396196603775,
		0.0,
		0.0,
		-0.9762960076332092],
		"scale":[1.0,
		1.0,
		1.0],
		"mesh":0,
		"children":[1,
		2,
		3,
		4,
		5,
		6,
		7,
		8,
		9,
		10,
		11,
		12,
		13]
	},
	{
		"name":"平面.18",
		"translation":[2.2629804611206056,
		2.2801618576049806,
		-0.01825217716395855],
		"rotation":[0.39763113856315615,
		-0.6302987933158875,
		0.6666953563690186,
		0.011410947889089585],
		"scale":[1.0,
		1.0,
		1.0],
		"mesh":1
	},
	{
		"name":"平面.17",
		"translation":[1.0724595785140992,
		2.7303948402404787,
		0.25260770320892336],
		"rotation":[0.3811139464378357,
		0.2646673619747162,
		-0.813266932964325,
		-0.3511413633823395],
		"scale":[1.0,
		1.0,
		1.0],
		"mesh":2
	},
	{
		"name":"平面.16",
		"translation":[-0.7348505258560181,
		2.9446113109588625,
		0.3240174949169159],
		"rotation":[0.3781844973564148,
		0.5893547534942627,
		-0.7084860801696777,
		-0.08766394108533859],
		"scale":[1.0,
		1.0,
		1.0],
		"mesh":3
	},
	{
		"name":"平面.15",
		"translation":[1.5950452089309693,
		-0.6968303918838501,
		1.9312800168991089],
		"rotation":[-0.08818122744560242,
		0.5620253682136536,
		-0.7195478081703186,
		-0.39824923872947695],
		"scale":[1.0,
		1.0,
		1.0],
		"mesh":4
	},
	{
		"name":"平面.7",
		"translation":[3.2396936416625978,
		2.0918633937835695,
		-1.108601689338684],
		"rotation":[0.022656390443444253,
		0.5367752909660339,
		-0.7603643536567688,
		-0.3649725914001465],
		"scale":[1.0,
		1.0,
		1.0],
		"mesh":5
	},
	{
		"name":"平面.5",
		"translation":[2.9105069637298586,
		1.4046859741210938,
		0.71769118309021],
		"rotation":[0.09321227669715882,
		-0.6524231433868408,
		-0.5062392354011536,
		0.5562170147895813],
		"scale":[-1.0,
		1.0,
		1.0],
		"mesh":6
	},
	{
		"name":"平面.6",
		"translation":[-1.3221100568771363,
		2.661987781524658,
		0.21804526448249818],
		"rotation":[0.016674283891916276,
		-0.5569235682487488,
		0.8029308915138245,
		-0.21180211007595063],
		"scale":[1.0,
		1.0,
		1.0],
		"mesh":7
	},
	{
		"name":"平面.4",
		"translation":[-1.554052710533142,
		-1.0422024726867676,
		1.8778871297836304],
		"rotation":[0.10086201876401901,
		-0.5161365866661072,
		0.7133158445358276,
		-0.46326062083244326],
		"scale":[1.0,
		1.0,
		1.0],
		"mesh":8
	},
	{
		"name":"平面.2",
		"translation":[1.7134549617767335,
		2.545635223388672,
		0.15258032083511353],
		"rotation":[-0.006732137408107519,
		0.5788048505783081,
		-0.784348726272583,
		-0.22301740944385529],
		"scale":[1.0,
		1.0,
		1.0],
		"mesh":9
	},
	{
		"name":"平面.1",
		"translation":[-3.0754873752593996,
		2.1646995544433595,
		-0.649861752986908],
		"rotation":[0.05982684716582298,
		-0.4891941547393799,
		0.8418558835983276,
		-0.21997374296188355],
		"scale":[1.0,
		1.0,
		1.0],
		"mesh":10
	},
	{
		"name":"平面",
		"translation":[-2.5971076488494875,
		1.6181005239486695,
		0.9464305639266968],
		"rotation":[0.7391749024391174,
		0.4765082001686096,
		-0.39837759733200076,
		-0.2604912221431732],
		"scale":[1.0,
		1.0,
		1.0],
		"mesh":11
	},
	{
		"name":"平面.3",
		"translation":[1.2152538299560547,
		-0.9507712125778198,
		2.225848913192749],
		"rotation":[0.6391906142234802,
		-0.6450302600860596,
		0.24416062235832215,
		-0.34023067355155947],
		"scale":[1.0,
		1.0,
		1.0],
		"mesh":12
	},
	{
		"name":"口罩",
		"translation":[0.0,
		-0.03011338971555233,
		0.13998185098171235],
		"rotation":[0.0,
		0.0,
		0.0,
		-1.0],
		"scale":[1.0,
		1.0,
		1.0],
		"mesh":13
	}],
	"textures":[{
		"sampler":0,
		"source":0
	},
	{
		"sampler":1,
		"source":1
	},
	{
		"sampler":2,
		"source":2
	},
	{
		"sampler":3,
		"source":3
	},
	{
		"sampler":4,
		"source":4
	},
	{
		"sampler":5,
		"source":5
	},
	{
		"sampler":6,
		"source":6
	},
	{
		"sampler":7,
		"source":7
	},
	{
		"sampler":8,
		"source":8
	},
	{
		"sampler":9,
		"source":9
	},
	{
		"sampler":10,
		"source":10
	},
	{
		"sampler":11,
		"source":11
	},
	{
		"sampler":12,
		"source":12
	},
	{
		"sampler":13,
		"source":13
	}],
	"meshes":[{
		"name":"口罩样式二",
		"primitives":[{
			"attributes":{
				"POSITION":1,
				"NORMAL":2,
				"TEXCOORD_0":3
			},
			"indices":0,
			"material":0
		}]
	},
	{
		"name":"平面.18",
		"primitives":[{
			"attributes":{
				"POSITION":5,
				"NORMAL":6,
				"TEXCOORD_0":7
			},
			"indices":4,
			"material":1
		}]
	},
	{
		"name":"平面.17",
		"primitives":[{
			"attributes":{
				"POSITION":9,
				"NORMAL":10,
				"TEXCOORD_0":11
			},
			"indices":8,
			"material":1
		}]
	},
	{
		"name":"平面.16",
		"primitives":[{
			"attributes":{
				"POSITION":13,
				"NORMAL":14,
				"TEXCOORD_0":15
			},
			"indices":12,
			"material":1
		}]
	},
	{
		"name":"平面.15",
		"primitives":[{
			"attributes":{
				"POSITION":17,
				"NORMAL":18,
				"TEXCOORD_0":19
			},
			"indices":16,
			"material":1
		}]
	},
	{
		"name":"平面.7",
		"primitives":[{
			"attributes":{
				"POSITION":21,
				"NORMAL":22,
				"TEXCOORD_0":23
			},
			"indices":20,
			"material":2
		}]
	},
	{
		"name":"平面.5",
		"primitives":[{
			"attributes":{
				"POSITION":25,
				"NORMAL":26,
				"TEXCOORD_0":27
			},
			"indices":24,
			"material":3
		}]
	},
	{
		"name":"平面.6",
		"primitives":[{
			"attributes":{
				"POSITION":29,
				"NORMAL":30,
				"TEXCOORD_0":31
			},
			"indices":28,
			"material":1
		}]
	},
	{
		"name":"平面.4",
		"primitives":[{
			"attributes":{
				"POSITION":33,
				"NORMAL":34,
				"TEXCOORD_0":35
			},
			"indices":32,
			"material":1
		}]
	},
	{
		"name":"平面.2",
		"primitives":[{
			"attributes":{
				"POSITION":37,
				"NORMAL":38,
				"TEXCOORD_0":39
			},
			"indices":36,
			"material":1
		}]
	},
	{
		"name":"平面.1",
		"primitives":[{
			"attributes":{
				"POSITION":41,
				"NORMAL":42,
				"TEXCOORD_0":43
			},
			"indices":40,
			"material":2
		}]
	},
	{
		"name":"平面",
		"primitives":[{
			"attributes":{
				"POSITION":45,
				"NORMAL":46,
				"TEXCOORD_0":47
			},
			"indices":44,
			"material":4
		}]
	},
	{
		"name":"平面.3",
		"primitives":[{
			"attributes":{
				"POSITION":49,
				"NORMAL":50,
				"TEXCOORD_0":51
			},
			"indices":48,
			"material":1
		}]
	},
	{
		"name":"口罩",
		"primitives":[{
			"attributes":{
				"POSITION":53,
				"NORMAL":54,
				"TEXCOORD_0":55
			},
			"indices":52,
			"material":0
		}]
	}],
	"accessors":[{
		"bufferView":0,
		"type":"SCALAR",
		"componentType":5123,
		"count":21888,
		"byteOffset":0,
		"min":[0],
		"max":[3821]
	},
	{
		"bufferView":1,
		"type":"VEC3",
		"componentType":5126,
		"count":3822,
		"byteOffset":0,
		"min":[-4.185500144958496,
		-3.023927688598633,
		-0.7750692367553711],
		"max":[4.185500144958496,
		3.0260722637176515,
		2.3129308223724367]
	},
	{
		"bufferView":1,
		"type":"VEC3",
		"componentType":5126,
		"count":3822,
		"byteOffset":12,
		"min":[-0.9580479264259338,
		-0.9865798950195313,
		-0.42590442299842837],
		"max":[0.9580479264259338,
		0.8777592778205872,
		0.9825575947761536]
	},
	{
		"bufferView":1,
		"type":"VEC2",
		"componentType":5126,
		"count":3822,
		"byteOffset":24,
		"min":[0.0,
		0.14799997210502625],
		"max":[1.0,
		0.8519998788833618]
	},
	{
		"bufferView":2,
		"type":"SCALAR",
		"componentType":5123,
		"count":6,
		"byteOffset":0,
		"min":[0],
		"max":[3]
	},
	{
		"bufferView":3,
		"type":"VEC3",
		"componentType":5126,
		"count":4,
		"byteOffset":0,
		"min":[-0.3480059802532196,
		-0.000038722719182260337,
		-0.3480289578437805],
		"max":[0.3480059802532196,
		0.000038722719182260337,
		0.3480289578437805]
	},
	{
		"bufferView":3,
		"type":"VEC3",
		"componentType":5126,
		"count":4,
		"byteOffset":12,
		"min":[0.00009490785305388272,
		-1.0,
		-0.000016365489500458353],
		"max":[0.00009490785305388272,
		-1.0,
		-0.000016365489500458353]
	},
	{
		"bufferView":3,
		"type":"VEC2",
		"componentType":5126,
		"count":4,
		"byteOffset":24,
		"min":[0.0,
		0.0],
		"max":[1.0,
		1.0]
	},
	{
		"bufferView":4,
		"type":"SCALAR",
		"componentType":5123,
		"count":6,
		"byteOffset":0,
		"min":[0],
		"max":[3]
	},
	{
		"bufferView":5,
		"type":"VEC3",
		"componentType":5126,
		"count":4,
		"byteOffset":0,
		"min":[-0.36194729804992678,
		-0.00005544293890125118,
		-0.36193400621414187],
		"max":[0.36194729804992678,
		0.00005544293890125118,
		0.36193400621414187]
	},
	{
		"bufferView":5,
		"type":"VEC3",
		"componentType":5126,
		"count":4,
		"byteOffset":12,
		"min":[-0.00006967529043322429,
		-1.0,
		0.00008352240547537804],
		"max":[-0.00006967529043322429,
		-1.0,
		0.00008352240547537804]
	},
	{
		"bufferView":5,
		"type":"VEC2",
		"componentType":5126,
		"count":4,
		"byteOffset":24,
		"min":[0.0,
		0.0],
		"max":[1.0,
		1.0]
	},
	{
		"bufferView":6,
		"type":"SCALAR",
		"componentType":5123,
		"count":6,
		"byteOffset":0,
		"min":[0],
		"max":[3]
	},
	{
		"bufferView":7,
		"type":"VEC3",
		"componentType":5126,
		"count":4,
		"byteOffset":0,
		"min":[-0.36192989349365237,
		-0.00003253150134696625,
		-0.3619453012943268],
		"max":[0.36192989349365237,
		0.00003253150134696625,
		0.3619453012943268]
	},
	{
		"bufferView":7,
		"type":"VEC3",
		"componentType":5126,
		"count":4,
		"byteOffset":12,
		"min":[-0.00008293125574709848,
		-1.0,
		0.000006951876457605977],
		"max":[-0.00008293125574709848,
		-1.0,
		0.000006951876457605977]
	},
	{
		"bufferView":7,
		"type":"VEC2",
		"componentType":5126,
		"count":4,
		"byteOffset":24,
		"min":[0.0,
		0.0],
		"max":[1.0,
		1.0]
	},
	{
		"bufferView":8,
		"type":"SCALAR",
		"componentType":5123,
		"count":6,
		"byteOffset":0,
		"min":[0],
		"max":[3]
	},
	{
		"bufferView":9,
		"type":"VEC3",
		"componentType":5126,
		"count":4,
		"byteOffset":0,
		"min":[-0.18747065961360932,
		-0.00002654389936651569,
		-0.187480166554451],
		"max":[0.18747065961360932,
		0.00002654389936651569,
		0.187480166554451]
	},
	{
		"bufferView":9,
		"type":"VEC3",
		"componentType":5126,
		"count":4,
		"byteOffset":12,
		"min":[0.00008718037861399353,
		-1.0,
		0.000054420099331764507],
		"max":[0.00008718037861399353,
		-1.0,
		0.000054420099331764507]
	},
	{
		"bufferView":9,
		"type":"VEC2",
		"componentType":5126,
		"count":4,
		"byteOffset":24,
		"min":[0.0,
		0.0],
		"max":[1.0,
		1.0]
	},
	{
		"bufferView":10,
		"type":"SCALAR",
		"componentType":5123,
		"count":6,
		"byteOffset":0,
		"min":[0],
		"max":[3]
	},
	{
		"bufferView":11,
		"type":"VEC3",
		"componentType":5126,
		"count":4,
		"byteOffset":0,
		"min":[-1.2688426971435547,
		-0.00017071094771381468,
		-1.268835186958313],
		"max":[1.2688426971435547,
		0.00017071094771381468,
		1.268835186958313]
	},
	{
		"bufferView":11,
		"type":"VEC3",
		"componentType":5126,
		"count":4,
		"byteOffset":12,
		"min":[0.00006002222289680503,
		-1.0,
		0.00007452916906913742],
		"max":[0.00006002222289680503,
		-1.0,
		0.00007452916906913742]
	},
	{
		"bufferView":11,
		"type":"VEC2",
		"componentType":5126,
		"count":4,
		"byteOffset":24,
		"min":[0.0,
		0.0],
		"max":[1.0,
		1.0]
	},
	{
		"bufferView":12,
		"type":"SCALAR",
		"componentType":5123,
		"count":6,
		"byteOffset":0,
		"min":[0],
		"max":[3]
	},
	{
		"bufferView":13,
		"type":"VEC3",
		"componentType":5126,
		"count":4,
		"byteOffset":0,
		"min":[-1.4137554168701172,
		-0.00017129261686932296,
		-1.4138633012771607],
		"max":[1.4137554168701172,
		0.00017129261686932296,
		1.4138633012771607]
	},
	{
		"bufferView":13,
		"type":"VEC3",
		"componentType":5126,
		"count":4,
		"byteOffset":12,
		"min":[0.000104416576505173,
		-1.0,
		0.000016749108908697964],
		"max":[0.000104416576505173,
		-1.0,
		0.000016749108908697964]
	},
	{
		"bufferView":13,
		"type":"VEC2",
		"componentType":5126,
		"count":4,
		"byteOffset":24,
		"min":[0.0,
		0.0],
		"max":[1.0,
		1.0]
	},
	{
		"bufferView":14,
		"type":"SCALAR",
		"componentType":5123,
		"count":6,
		"byteOffset":0,
		"min":[0],
		"max":[3]
	},
	{
		"bufferView":15,
		"type":"VEC3",
		"componentType":5126,
		"count":4,
		"byteOffset":0,
		"min":[-0.36194542050361636,
		-0.000040429011278320107,
		-0.36194154620170596],
		"max":[0.36194542050361636,
		0.000040429011278320107,
		0.36194154620170596]
	},
	{
		"bufferView":15,
		"type":"VEC3",
		"componentType":5126,
		"count":4,
		"byteOffset":12,
		"min":[-0.00003731928518391214,
		-1.0,
		0.00007438543252646923],
		"max":[-0.00003731928518391214,
		-1.0,
		0.00007438543252646923]
	},
	{
		"bufferView":15,
		"type":"VEC2",
		"componentType":5126,
		"count":4,
		"byteOffset":24,
		"min":[0.0,
		0.0],
		"max":[1.0,
		1.0]
	},
	{
		"bufferView":16,
		"type":"SCALAR",
		"componentType":5123,
		"count":6,
		"byteOffset":0,
		"min":[0],
		"max":[3]
	},
	{
		"bufferView":17,
		"type":"VEC3",
		"componentType":5126,
		"count":4,
		"byteOffset":0,
		"min":[-0.29286548495292666,
		-0.000039139842556323859,
		-0.29285940527915957],
		"max":[0.29286548495292666,
		0.000039139842556323859,
		0.29285940527915957]
	},
	{
		"bufferView":17,
		"type":"VEC3",
		"componentType":5126,
		"count":4,
		"byteOffset":12,
		"min":[-0.0000567914466955699,
		-1.0,
		0.00007686480967095122],
		"max":[-0.0000567914466955699,
		-1.0,
		0.00007686480967095122]
	},
	{
		"bufferView":17,
		"type":"VEC2",
		"componentType":5126,
		"count":4,
		"byteOffset":24,
		"min":[0.0,
		0.0],
		"max":[1.0,
		1.0]
	},
	{
		"bufferView":18,
		"type":"SCALAR",
		"componentType":5123,
		"count":6,
		"byteOffset":0,
		"min":[0],
		"max":[3]
	},
	{
		"bufferView":19,
		"type":"VEC3",
		"componentType":5126,
		"count":4,
		"byteOffset":0,
		"min":[-0.3480229675769806,
		-0.00003958066372433677,
		-0.3480241000652313],
		"max":[0.3480229675769806,
		0.00003958066372433677,
		0.3480241000652313]
	},
	{
		"bufferView":19,
		"type":"VEC3",
		"componentType":5126,
		"count":4,
		"byteOffset":12,
		"min":[0.00004897772669210099,
		-1.0,
		0.00006475732516264543],
		"max":[0.00004897772669210099,
		-1.0,
		0.00006475732516264543]
	},
	{
		"bufferView":19,
		"type":"VEC2",
		"componentType":5126,
		"count":4,
		"byteOffset":24,
		"min":[0.0,
		0.0],
		"max":[1.0,
		1.0]
	},
	{
		"bufferView":20,
		"type":"SCALAR",
		"componentType":5123,
		"count":6,
		"byteOffset":0,
		"min":[0],
		"max":[3]
	},
	{
		"bufferView":21,
		"type":"VEC3",
		"componentType":5126,
		"count":4,
		"byteOffset":0,
		"min":[-0.9244429469108582,
		-0.0001040920615196228,
		-0.9244013428688049],
		"max":[0.9244429469108582,
		0.0001040920615196228,
		0.9244013428688049]
	},
	{
		"bufferView":21,
		"type":"VEC3",
		"componentType":5126,
		"count":4,
		"byteOffset":12,
		"min":[-0.00001732438977342099,
		-1.0,
		0.00009528356167720631],
		"max":[-0.00001732438977342099,
		-1.0,
		0.00009528356167720631]
	},
	{
		"bufferView":21,
		"type":"VEC2",
		"componentType":5126,
		"count":4,
		"byteOffset":24,
		"min":[0.0,
		0.0],
		"max":[1.0,
		1.0]
	},
	{
		"bufferView":22,
		"type":"SCALAR",
		"componentType":5123,
		"count":6,
		"byteOffset":0,
		"min":[0],
		"max":[3]
	},
	{
		"bufferView":23,
		"type":"VEC3",
		"componentType":5126,
		"count":4,
		"byteOffset":0,
		"min":[-1.8126506805419922,
		-0.0002641110622789711,
		-1.8125594854354859],
		"max":[1.8126506805419922,
		0.0002641110622789711,
		1.8125594854354859]
	},
	{
		"bufferView":23,
		"type":"VEC3",
		"componentType":5126,
		"count":4,
		"byteOffset":12,
		"min":[-0.0000594031298533082,
		-1.0,
		-0.00008631672972114757],
		"max":[-0.0000594031298533082,
		-1.0,
		-0.00008631672972114757]
	},
	{
		"bufferView":23,
		"type":"VEC2",
		"componentType":5126,
		"count":4,
		"byteOffset":24,
		"min":[0.0,
		0.0],
		"max":[1.0,
		1.0]
	},
	{
		"bufferView":24,
		"type":"SCALAR",
		"componentType":5123,
		"count":6,
		"byteOffset":0,
		"min":[0],
		"max":[3]
	},
	{
		"bufferView":25,
		"type":"VEC3",
		"componentType":5126,
		"count":4,
		"byteOffset":0,
		"min":[-0.4637065827846527,
		-0.00005605654587270692,
		-0.4636610150337219],
		"max":[0.4637065827846527,
		0.00005605654587270692,
		0.4636610150337219]
	},
	{
		"bufferView":25,
		"type":"VEC3",
		"componentType":5126,
		"count":4,
		"byteOffset":12,
		"min":[-0.000020568450054270217,
		-1.0,
		-0.00010033392027253285],
		"max":[-0.000020568450054270217,
		-1.0,
		-0.00010033392027253285]
	},
	{
		"bufferView":25,
		"type":"VEC2",
		"componentType":5126,
		"count":4,
		"byteOffset":24,
		"min":[0.0,
		0.0],
		"max":[1.0,
		1.0]
	},
	{
		"bufferView":26,
		"type":"SCALAR",
		"componentType":5123,
		"count":21888,
		"byteOffset":0,
		"min":[0],
		"max":[3821]
	},
	{
		"bufferView":27,
		"type":"VEC3",
		"componentType":5126,
		"count":3822,
		"byteOffset":0,
		"min":[-3.6147499084472658,
		-3.0239813327789308,
		-0.26138707995414736],
		"max":[3.6147499084472658,
		3.0260186195373537,
		2.434748649597168]
	},
	{
		"bufferView":27,
		"type":"VEC3",
		"componentType":5126,
		"count":3822,
		"byteOffset":12,
		"min":[-0.9673620462417603,
		-0.9828002452850342,
		-0.40505751967430117],
		"max":[0.9673620462417603,
		0.8673955202102661,
		0.9804049134254456]
	},
	{
		"bufferView":27,
		"type":"VEC2",
		"componentType":5126,
		"count":3822,
		"byteOffset":24,
		"min":[0.0,
		0.14799997210502625],
		"max":[1.0,
		0.8519998788833618]
	}],
	"bufferViews":[{
		"buffer":0,
		"target":34963,
		"byteOffset":0,
		"byteLength":43776
	},
	{
		"buffer":0,
		"target":34962,
		"byteOffset":43776,
		"byteLength":122304,
		"byteStride":32
	},
	{
		"buffer":1,
		"target":34963,
		"byteOffset":0,
		"byteLength":12
	},
	{
		"buffer":1,
		"target":34962,
		"byteOffset":12,
		"byteLength":128,
		"byteStride":32
	},
	{
		"buffer":2,
		"target":34963,
		"byteOffset":0,
		"byteLength":12
	},
	{
		"buffer":2,
		"target":34962,
		"byteOffset":12,
		"byteLength":128,
		"byteStride":32
	},
	{
		"buffer":3,
		"target":34963,
		"byteOffset":0,
		"byteLength":12
	},
	{
		"buffer":3,
		"target":34962,
		"byteOffset":12,
		"byteLength":128,
		"byteStride":32
	},
	{
		"buffer":4,
		"target":34963,
		"byteOffset":0,
		"byteLength":12
	},
	{
		"buffer":4,
		"target":34962,
		"byteOffset":12,
		"byteLength":128,
		"byteStride":32
	},
	{
		"buffer":5,
		"target":34963,
		"byteOffset":0,
		"byteLength":12
	},
	{
		"buffer":5,
		"target":34962,
		"byteOffset":12,
		"byteLength":128,
		"byteStride":32
	},
	{
		"buffer":6,
		"target":34963,
		"byteOffset":0,
		"byteLength":12
	},
	{
		"buffer":6,
		"target":34962,
		"byteOffset":12,
		"byteLength":128,
		"byteStride":32
	},
	{
		"buffer":7,
		"target":34963,
		"byteOffset":0,
		"byteLength":12
	},
	{
		"buffer":7,
		"target":34962,
		"byteOffset":12,
		"byteLength":128,
		"byteStride":32
	},
	{
		"buffer":8,
		"target":34963,
		"byteOffset":0,
		"byteLength":12
	},
	{
		"buffer":8,
		"target":34962,
		"byteOffset":12,
		"byteLength":128,
		"byteStride":32
	},
	{
		"buffer":9,
		"target":34963,
		"byteOffset":0,
		"byteLength":12
	},
	{
		"buffer":9,
		"target":34962,
		"byteOffset":12,
		"byteLength":128,
		"byteStride":32
	},
	{
		"buffer":10,
		"target":34963,
		"byteOffset":0,
		"byteLength":12
	},
	{
		"buffer":10,
		"target":34962,
		"byteOffset":12,
		"byteLength":128,
		"byteStride":32
	},
	{
		"buffer":11,
		"target":34963,
		"byteOffset":0,
		"byteLength":12
	},
	{
		"buffer":11,
		"target":34962,
		"byteOffset":12,
		"byteLength":128,
		"byteStride":32
	},
	{
		"buffer":12,
		"target":34963,
		"byteOffset":0,
		"byteLength":12
	},
	{
		"buffer":12,
		"target":34962,
		"byteOffset":12,
		"byteLength":128,
		"byteStride":32
	},
	{
		"buffer":13,
		"target":34963,
		"byteOffset":0,
		"byteLength":43776
	},
	{
		"buffer":13,
		"target":34962,
		"byteOffset":43776,
		"byteLength":122304,
		"byteStride":32
	}],
	"buffers":[{
		"uri":"data:application/octet-stream;base64,",
		"byteLength":166080
	},
	{
		"uri":"data:application/octet-stream;base64,",
		"byteLength":140
	},
	{
		"uri":"data:application/octet-stream;base64,",
		"byteLength":140
	},
	{
		"uri":"data:application/octet-stream;base64,",
		"byteLength":140
	},
	{
		"uri":"data:application/octet-stream;base64,",
		"byteLength":140
	},
	{
		"uri":"data:application/octet-stream;base64,",
		"byteLength":140
	},
	{
		"uri":"data:application/octet-stream;base64,",
		"byteLength":140
	},
	{
		"uri":"data:application/octet-stream;base64,",
		"byteLength":140
	},
	{
		"uri":"data:application/octet-stream;base64,",
		"byteLength":140
	},
	{
		"uri":"data:application/octet-stream;base64,",
		"byteLength":140
	},
	{
		"uri":"data:application/octet-stream;base64,",
		"byteLength":140
	},
	{
		"uri":"data:application/octet-stream;base64,",
		"byteLength":140
	},
	{
		"uri":"data:application/octet-stream;base64,",
		"byteLength":140
	},
	{
		"uri":"data:application/octet-stream;base64,",
		"byteLength":166080
	}],
	"images":[{
		"uri":"data:image/jpeg;base64,"
	},
	{
		"uri":"data:image/jpeg;base64,"
	},
	{
		"uri":"data:image/png;base64,"
	},
	{
		"uri":"data:image/jpeg;base64,"
	},
	{
		"uri":"data:image/jpeg;base64,"
	},
	{
		"uri":"data:image/png;base64,"
	},
	{
		"uri":"data:image/jpeg;base64,"
	},
	{
		"uri":"data:image/jpeg;base64,"
	},
	{
		"uri":"data:image/png;base64,"
	},
	{
		"uri":"data:image/jpeg;base64,"
	},
	{
		"uri":"data:image/jpeg;base64,"
	},
	{
		"uri":"data:image/png;base64,"
	},
	{
		"uri":"data:image/jpeg;base64,"
	},
	{
		"uri":"data:image/jpeg;base64,"
	}],
	"materials":[{
		"emissiveFactor":[0.0,
		0.0,
		0.0],
		"pbrMetallicRoughness":{
			"baseColorTexture":{
				"index":0
			},
			"baseColorFactor":[1.0,
			1.0,
			1.0,
			1.0],
			"metallicFactor":0.05,
			"roughnessFactor":1.0
		},
		"normalTexture":{
			"index":1,
			"scale":1.0
		},
		"alphaMode":"OPAQUE",
		"doubleSided":true,
		"name":"mask"
	},
	{
		"emissiveFactor":[1.0,
		1.0,
		1.0],
		"pbrMetallicRoughness":{
			"baseColorTexture":{
				"index":2
			},
			"baseColorFactor":[0.8,
			0.8,
			0.8,
			1.0],
			"metallicFactor":0.05,
			"roughnessFactor":1.0
		},
		"normalTexture":{
			"index":3,
			"scale":1.0
		},
		"emissiveTexture":{
			"index":4
		},
		"alphaMode":"BLEND",
		"doubleSided":true,
		"name":"04"
	},
	{
		"emissiveFactor":[1.0,
		1.0,
		1.0],
		"pbrMetallicRoughness":{
			"baseColorTexture":{
				"index":5
			},
			"baseColorFactor":[0.8,
			0.8,
			0.8,
			1.0],
			"metallicFactor":0.05,
			"roughnessFactor":1.0
		},
		"normalTexture":{
			"index":6,
			"scale":1.0
		},
		"emissiveTexture":{
			"index":7
		},
		"alphaMode":"BLEND",
		"doubleSided":true,
		"name":"03"
	},
	{
		"emissiveFactor":[1.0,
		1.0,
		1.0],
		"pbrMetallicRoughness":{
			"baseColorTexture":{
				"index":8
			},
			"baseColorFactor":[0.8,
			0.8,
			0.8,
			1.0],
			"metallicFactor":0.05,
			"roughnessFactor":1.0
		},
		"normalTexture":{
			"index":9,
			"scale":1.0
		},
		"emissiveTexture":{
			"index":10
		},
		"alphaMode":"BLEND",
		"doubleSided":true,
		"name":"01"
	},
	{
		"emissiveFactor":[1.0,
		1.0,
		1.0],
		"pbrMetallicRoughness":{
			"baseColorTexture":{
				"index":11
			},
			"baseColorFactor":[0.8,
			0.8,
			0.8,
			1.0],
			"metallicFactor":0.05,
			"roughnessFactor":1.0
		},
		"normalTexture":{
			"index":12,
			"scale":1.0
		},
		"emissiveTexture":{
			"index":13
		},
		"alphaMode":"BLEND",
		"doubleSided":true,
		"name":"05"
	}]
}