{
	"asset":{
		"version":"2.0",
		"generator":"Created using the official Cinema 4D glTF Exporter 1.000x284978"
	},
	"scenes":[{
		"nodes":[0]
	}],
	"nodes":[{
		"name":"千千",
		"translation":[0.0,
		0.0,
		0.0],
		"rotation":[0.0,
		0.0,
		0.0,
		-1.0],
		"scale":[1.0,
		1.0,
		1.0],
		"children":[1,
		2,
		3,
		4,
		5,
		6,
		7,
		8,
		9]
	},
	{
		"name":"腮红",
		"translation":[-11.522185325622559,
		20.935651779174806,
		1.2472084760665894],
		"rotation":[0.0,
		0.0,
		0.0,
		-1.0],
		"scale":[1.5,
		1.5,
		1.5],
		"mesh":0
	},
	{
		"name":"眉",
		"translation":[41.727813720703128,
		49.435462951660159,
		0.1224076896905899],
		"rotation":[0.0,
		0.0,
		0.0,
		-1.0],
		"scale":[1.5,
		1.5,
		1.5],
		"mesh":1
	},
	{
		"name":"嘴",
		"translation":[-11.522185325622559,
		14.93546199798584,
		3.1224076747894289],
		"rotation":[0.0,
		0.0,
		0.0,
		-1.0],
		"scale":[1.5,
		1.5,
		1.5],
		"mesh":2
	},
	{
		"name":"舌头",
		"translation":[-10.687644958496094,
		-26.560792922973634,
		2.7474076747894289],
		"rotation":[0.0,
		0.0,
		0.0,
		-1.0],
		"scale":[1.5,
		1.5,
		4.5],
		"mesh":3
	},
	{
		"name":"口腔",
		"translation":[-14.40705394744873,
		-4.399315357208252,
		3.1224076747894289],
		"rotation":[0.0,
		0.0,
		0.03841007500886917,
		-0.9992620348930359],
		"scale":[1.5,
		1.5,
		1.5],
		"mesh":4
	},
	{
		"name":"L_手",
		"translation":[70.90172576904297,
		-14.157981872558594,
		-15.583617210388184],
		"rotation":[0.0,
		0.0,
		0.0,
		-1.0],
		"scale":[1.5,
		1.5,
		1.5],
		"mesh":5
	},
	{
		"name":"R_手",
		"translation":[-93.94609832763672,
		-14.157981872558594,
		-15.583617210388184],
		"rotation":[0.0,
		0.0,
		0.0,
		-1.0],
		"scale":[1.5,
		1.5,
		1.5],
		"mesh":6
	},
	{
		"name":"千千",
		"translation":[-11.522185325622559,
		16.435462951660158,
		-22.377592086791993],
		"rotation":[0.0,
		0.0,
		0.0,
		-1.0],
		"scale":[1.5,
		1.5,
		1.5],
		"mesh":7
	},
	{
		"name":"爱心",
		"translation":[-11.522185325622559,
		-36.779747009277347,
		46.507179260253909],
		"rotation":[0.0,
		-1.3877787807814458e-17,
		0.0,
		-1.0],
		"scale":[1.4249999523162842,
		1.4249999523162842,
		1.4249999523162842],
		"mesh":8
	}],
	"meshes":[{
		"name":"腮红",
		"primitives":[{
			"attributes":{
				"POSITION":1,
				"NORMAL":2
			},
			"indices":0,
			"material":0
		}]
	},
	{
		"name":"眉",
		"primitives":[{
			"attributes":{
				"POSITION":4,
				"NORMAL":5
			},
			"indices":3,
			"material":1
		}]
	},
	{
		"name":"嘴",
		"primitives":[{
			"attributes":{
				"POSITION":7,
				"NORMAL":8
			},
			"indices":6,
			"material":1
		}]
	},
	{
		"name":"舌头",
		"primitives":[{
			"attributes":{
				"POSITION":10,
				"NORMAL":11
			},
			"indices":9,
			"material":0
		}]
	},
	{
		"name":"口腔",
		"primitives":[{
			"attributes":{
				"POSITION":13,
				"NORMAL":14
			},
			"indices":12,
			"material":1
		}]
	},
	{
		"name":"L_手",
		"primitives":[{
			"attributes":{
				"POSITION":16,
				"NORMAL":17
			},
			"indices":15,
			"material":2
		}]
	},
	{
		"name":"R_手",
		"primitives":[{
			"attributes":{
				"POSITION":21,
				"NORMAL":22
			},
			"indices":20,
			"material":2
		}]
	},
	{
		"name":"千千",
		"primitives":[{
			"attributes":{
				"POSITION":26,
				"NORMAL":27
			},
			"indices":25,
			"material":3
		}]
	},
	{
		"name":"爱心",
		"primitives":[{
			"attributes":{
				"POSITION":29,
				"NORMAL":30
			},
			"indices":28,
			"material":4
		}]
	}],
	"accessors":[{
		"bufferView":0,
		"type":"SCALAR",
		"componentType":5123,
		"count":1464,
		"byteOffset":0,
		"min":[0],
		"max":[247]
	},
	{
		"bufferView":1,
		"type":"VEC3",
		"componentType":5126,
		"count":248,
		"byteOffset":0,
		"min":[-44.570186614990237,
		-3.417807102203369,
		-3.4959897994995119],
		"max":[44.570186614990237,
		3.417807102203369,
		3.4959897994995119]
	},
	{
		"bufferView":1,
		"type":"VEC3",
		"componentType":5126,
		"count":248,
		"byteOffset":12,
		"min":[-0.9974696636199951,
		-0.975841760635376,
		-0.9931270480155945],
		"max":[0.9974696636199951,
		0.9879778623580933,
		0.9968153834342957]
	},
	{
		"bufferView":2,
		"type":"SCALAR",
		"componentType":5123,
		"count":11904,
		"byteOffset":0,
		"min":[0],
		"max":[2023]
	},
	{
		"bufferView":3,
		"type":"VEC3",
		"componentType":5126,
		"count":2024,
		"byteOffset":0,
		"min":[-86.20832061767578,
		-9.265955924987793,
		-4.9996562004089359],
		"max":[15.208317756652832,
		4.963129043579102,
		4.999664783477783]
	},
	{
		"bufferView":3,
		"type":"VEC3",
		"componentType":5126,
		"count":2024,
		"byteOffset":12,
		"min":[-0.9999774098396301,
		-0.9999869465827942,
		-1.0],
		"max":[0.9999774694442749,
		0.9987297654151917,
		1.0]
	},
	{
		"bufferView":4,
		"type":"SCALAR",
		"componentType":5123,
		"count":612,
		"byteOffset":0,
		"min":[0],
		"max":[103]
	},
	{
		"bufferView":5,
		"type":"VEC3",
		"componentType":5126,
		"count":104,
		"byteOffset":0,
		"min":[-20.0,
		-2.5,
		-2.5],
		"max":[20.0,
		2.5,
		2.5]
	},
	{
		"bufferView":5,
		"type":"VEC3",
		"componentType":5126,
		"count":104,
		"byteOffset":12,
		"min":[-0.9892228841781616,
		-0.9865115880966187,
		-0.9874725937843323],
		"max":[0.9892228841781616,
		0.9873344898223877,
		0.9874725937843323]
	},
	{
		"bufferView":6,
		"type":"SCALAR",
		"componentType":5123,
		"count":720,
		"byteOffset":0,
		"min":[0],
		"max":[132]
	},
	{
		"bufferView":7,
		"type":"VEC3",
		"componentType":5126,
		"count":133,
		"byteOffset":0,
		"min":[-12.836747169494629,
		-0.045888472348451617,
		2.1299746634419887e-13],
		"max":[11.574353218078614,
		12.819206237792969,
		0.5]
	},
	{
		"bufferView":7,
		"type":"VEC3",
		"componentType":5126,
		"count":133,
		"byteOffset":12,
		"min":[-0.9424931406974793,
		-0.8666844964027405,
		-1.0],
		"max":[0.6497712731361389,
		0.9949049353599548,
		1.0]
	},
	{
		"bufferView":8,
		"type":"SCALAR",
		"componentType":5123,
		"count":1188,
		"byteOffset":0,
		"min":[0],
		"max":[217]
	},
	{
		"bufferView":9,
		"type":"VEC3",
		"componentType":5126,
		"count":218,
		"byteOffset":0,
		"min":[-14.738682746887207,
		-14.818897247314454,
		-4.87943874826033e-15],
		"max":[17.861656188964845,
		15.53669548034668,
		-3.8977195155795975e-16]
	},
	{
		"bufferView":9,
		"type":"VEC3",
		"componentType":5126,
		"count":218,
		"byteOffset":12,
		"min":[-3.09422591469874e-16,
		-4.56044550504965e-16,
		1.0],
		"max":[4.2098093343910364e-16,
		1.1452512251259109e-15,
		1.0]
	},
	{
		"bufferView":10,
		"type":"SCALAR",
		"componentType":5123,
		"count":2946,
		"byteOffset":0,
		"min":[0],
		"max":[493]
	},
	{
		"bufferView":11,
		"type":"VEC3",
		"componentType":5126,
		"count":494,
		"byteOffset":0,
		"min":[-13.157414436340332,
		-12.915675163269043,
		-0.3792858123779297],
		"max":[15.347221374511719,
		17.66283416748047,
		53.890377044677737]
	},
	{
		"bufferView":11,
		"type":"VEC3",
		"componentType":5126,
		"count":494,
		"byteOffset":12,
		"min":[-0.9991486072540283,
		-0.9996118545532227,
		-0.9978680610656738],
		"max":[0.9950157999992371,
		0.9992519617080689,
		0.9902533292770386]
	},
	{
		"bufferView":12,
		"type":"SCALAR",
		"componentType":5126,
		"count":11,
		"byteOffset":0,
		"min":[0.0],
		"max":[0.3333333432674408]
	},
	{
		"bufferView":12,
		"type":"VEC4",
		"componentType":5126,
		"count":11,
		"byteOffset":44,
		"min":[0.0,
		-0.016929006204009057,
		-0.0030496735125780107,
		-1.0],
		"max":[0.16334791481494904,
		0.0,
		0.0,
		0.9998546838760376]
	},
	{
		"bufferView":13,
		"type":"SCALAR",
		"componentType":5123,
		"count":2946,
		"byteOffset":0,
		"min":[0],
		"max":[497]
	},
	{
		"bufferView":14,
		"type":"VEC3",
		"componentType":5126,
		"count":498,
		"byteOffset":0,
		"min":[-15.347265243530274,
		-12.915675163269043,
		-0.379321813583374],
		"max":[13.694442749023438,
		17.180858612060548,
		54.703224182128909]
	},
	{
		"bufferView":14,
		"type":"VEC3",
		"componentType":5126,
		"count":498,
		"byteOffset":12,
		"min":[-0.9950172901153565,
		-0.997248113155365,
		-0.997868001461029],
		"max":[0.9978901743888855,
		0.999873161315918,
		0.9983360171318054]
	},
	{
		"bufferView":15,
		"type":"SCALAR",
		"componentType":5126,
		"count":11,
		"byteOffset":0,
		"min":[0.0],
		"max":[0.3333333432674408]
	},
	{
		"bufferView":15,
		"type":"VEC4",
		"componentType":5126,
		"count":11,
		"byteOffset":44,
		"min":[-0.1631292849779129,
		-0.01891934499144554,
		0.0,
		-1.0],
		"max":[0.0,
		0.0,
		0.008982188068330288,
		-0.9863823652267456]
	},
	{
		"bufferView":16,
		"type":"SCALAR",
		"componentType":5123,
		"count":8688,
		"byteOffset":0,
		"min":[0],
		"max":[1464]
	},
	{
		"bufferView":17,
		"type":"VEC3",
		"componentType":5126,
		"count":1465,
		"byteOffset":0,
		"min":[-110.0724868774414,
		-101.07286071777344,
		-30.294544219970704],
		"max":[105.16209411621094,
		108.58516693115235,
		28.221647262573243]
	},
	{
		"bufferView":17,
		"type":"VEC3",
		"componentType":5126,
		"count":1465,
		"byteOffset":12,
		"min":[-0.9998890161514282,
		-0.9972265958786011,
		-0.9998199939727783],
		"max":[0.9997990131378174,
		0.9938198328018189,
		0.9999847412109375]
	},
	{
		"bufferView":18,
		"type":"SCALAR",
		"componentType":5123,
		"count":2682,
		"byteOffset":0,
		"min":[0],
		"max":[448]
	},
	{
		"bufferView":19,
		"type":"VEC3",
		"componentType":5126,
		"count":449,
		"byteOffset":0,
		"min":[-50.443939208984378,
		-35.8354377746582,
		-21.38646697998047],
		"max":[50.26829147338867,
		47.13841247558594,
		21.315345764160158]
	},
	{
		"bufferView":19,
		"type":"VEC3",
		"componentType":5126,
		"count":449,
		"byteOffset":12,
		"min":[-0.9769991636276245,
		-0.9896054863929749,
		-0.9999903440475464],
		"max":[0.977632999420166,
		0.9975674152374268,
		0.9991011619567871]
	},
	{
		"bufferView":20,
		"type":"SCALAR",
		"componentType":5126,
		"count":11,
		"byteOffset":0,
		"min":[0.0],
		"max":[0.3333333432674408]
	},
	{
		"bufferView":20,
		"type":"VEC3",
		"componentType":5126,
		"count":11,
		"byteOffset":44,
		"min":[-11.522185325622559,
		-52.95869827270508,
		37.04800033569336],
		"max":[-11.522185325622559,
		-36.779747009277347,
		46.507179260253909]
	},
	{
		"bufferView":21,
		"type":"SCALAR",
		"componentType":5126,
		"count":11,
		"byteOffset":0,
		"min":[0.0],
		"max":[0.3333333432674408]
	},
	{
		"bufferView":21,
		"type":"VEC4",
		"componentType":5126,
		"count":11,
		"byteOffset":44,
		"min":[-0.08715574443340302,
		-1.3877787807814458e-17,
		0.0,
		-1.0],
		"max":[0.0,
		-1.3824978943147847e-17,
		1.209528927478873e-18,
		-0.9961947202682495]
	}],
	"bufferViews":[{
		"buffer":0,
		"byteOffset":0,
		"byteLength":2928,
		"target":34963
	},
	{
		"buffer":0,
		"byteOffset":2928,
		"byteLength":5952,
		"target":34962,
		"byteStride":24
	},
	{
		"buffer":1,
		"byteOffset":0,
		"byteLength":23808,
		"target":34963
	},
	{
		"buffer":1,
		"byteOffset":23808,
		"byteLength":48576,
		"target":34962,
		"byteStride":24
	},
	{
		"buffer":2,
		"byteOffset":0,
		"byteLength":1224,
		"target":34963
	},
	{
		"buffer":2,
		"byteOffset":1224,
		"byteLength":2496,
		"target":34962,
		"byteStride":24
	},
	{
		"buffer":3,
		"byteOffset":0,
		"byteLength":1440,
		"target":34963
	},
	{
		"buffer":3,
		"byteOffset":1440,
		"byteLength":3192,
		"target":34962,
		"byteStride":24
	},
	{
		"buffer":4,
		"byteOffset":0,
		"byteLength":2376,
		"target":34963
	},
	{
		"buffer":4,
		"byteOffset":2376,
		"byteLength":5232,
		"target":34962,
		"byteStride":24
	},
	{
		"buffer":5,
		"byteOffset":0,
		"byteLength":5892,
		"target":34963
	},
	{
		"buffer":5,
		"byteOffset":5892,
		"byteLength":11856,
		"target":34962,
		"byteStride":24
	},
	{
		"buffer":6,
		"byteOffset":0,
		"byteLength":220
	},
	{
		"buffer":7,
		"byteOffset":0,
		"byteLength":5892,
		"target":34963
	},
	{
		"buffer":7,
		"byteOffset":5892,
		"byteLength":11952,
		"target":34962,
		"byteStride":24
	},
	{
		"buffer":8,
		"byteOffset":0,
		"byteLength":220
	},
	{
		"buffer":9,
		"byteOffset":0,
		"byteLength":17376,
		"target":34963
	},
	{
		"buffer":9,
		"byteOffset":17376,
		"byteLength":35160,
		"target":34962,
		"byteStride":24
	},
	{
		"buffer":10,
		"byteOffset":0,
		"byteLength":5364,
		"target":34963
	},
	{
		"buffer":10,
		"byteOffset":5364,
		"byteLength":10776,
		"target":34962,
		"byteStride":24
	},
	{
		"buffer":11,
		"byteOffset":0,
		"byteLength":176
	},
	{
		"buffer":11,
		"byteOffset":176,
		"byteLength":220
	}],
	"buffers":[{
		"uri":"data:application/octet-stream;base64,",
		"byteLength":8880
	},
	{
		"uri":"data:application/octet-stream;base64,",
		"byteLength":72384
	},
	{
		"uri":"data:application/octet-stream;base64,",
		"byteLength":3720
	},
	{
		"uri":"data:application/octet-stream;base64,",
		"byteLength":4632
	},
	{
		"uri":"data:application/octet-stream;base64,",
		"byteLength":7608
	},
	{
		"uri":"data:application/octet-stream;base64,",
		"byteLength":17748
	},
	{
		"uri":"data:application/octet-stream;base64,",
		"byteLength":220
	},
	{
		"uri":"data:application/octet-stream;base64,",
		"byteLength":17844
	},
	{
		"uri":"data:application/octet-stream;base64,",
		"byteLength":220
	},
	{
		"uri":"data:application/octet-stream;base64,",
		"byteLength":52536
	},
	{
		"uri":"data:application/octet-stream;base64,",
		"byteLength":16140
	},
	{
		"uri":"data:application/octet-stream;base64,",
		"byteLength":396
	}],
	"materials":[{
		"pbrMetallicRoughness":{
			"baseColorFactor":[0.9999999999999999,
			0.35999999999999995,
			0.35999999999999995,
			1.0],
			"metallicFactor":0.0,
			"roughnessFactor":0.5
		},
		"emissiveFactor":[0.0,
		0.0,
		0.0],
		"alphaMode":"OPAQUE",
		"doubleSided":true,
		"name":"材质.3"
	},
	{
		"pbrMetallicRoughness":{
			"baseColorFactor":[0.05000000000000001,
			0.05000000000000001,
			0.05000000000000001,
			1.0],
			"metallicFactor":0.0,
			"roughnessFactor":0.5
		},
		"emissiveFactor":[0.0,
		0.0,
		0.0],
		"alphaMode":"OPAQUE",
		"doubleSided":true,
		"name":"材质.4"
	},
	{
		"pbrMetallicRoughness":{
			"baseColorFactor":[0.9999999999999999,
			0.8469999999999996,
			0.7299999999999995,
			1.0],
			"metallicFactor":0.0,
			"roughnessFactor":0.5
		},
		"emissiveFactor":[0.0,
		0.0,
		0.0],
		"alphaMode":"OPAQUE",
		"doubleSided":true,
		"name":"材质.1"
	},
	{
		"pbrMetallicRoughness":{
			"baseColorFactor":[0.9999999999999999,
			0.7874999999999998,
			0.24999999999999998,
			1.0],
			"metallicFactor":0.0,
			"roughnessFactor":0.5
		},
		"emissiveFactor":[0.0,
		0.0,
		0.0],
		"alphaMode":"OPAQUE",
		"doubleSided":true,
		"name":"材质"
	},
	{
		"pbrMetallicRoughness":{
			"baseColorFactor":[0.9999999999999999,
			0.15,
			0.15,
			1.0],
			"metallicFactor":0.0,
			"roughnessFactor":0.5
		},
		"emissiveFactor":[0.0,
		0.0,
		0.0],
		"alphaMode":"OPAQUE",
		"doubleSided":true,
		"name":"材质.2"
	}],
	"animations":[{
		"samplers":[{
			"input":18,
			"interpolation":"LINEAR",
			"output":19
		},
		{
			"input":23,
			"interpolation":"LINEAR",
			"output":24
		},
		{
			"input":31,
			"interpolation":"LINEAR",
			"output":32
		},
		{
			"input":33,
			"interpolation":"LINEAR",
			"output":34
		}],
		"channels":[{
			"sampler":0,
			"target":{
				"node":6,
				"path":"rotation"
			}
		},
		{
			"sampler":1,
			"target":{
				"node":7,
				"path":"rotation"
			}
		},
		{
			"sampler":2,
			"target":{
				"node":9,
				"path":"translation"
			}
		},
		{
			"sampler":3,
			"target":{
				"node":9,
				"path":"rotation"
			}
		}]
	}]
}